<svg width="26" height="26" viewBox="0 0 26 26" fill="none" xmlns="http://www.w3.org/2000/svg">
<path d="M21.1561 0.916687C22.1976 0.916687 23.1965 1.33043 23.933 2.0669C24.6694 2.80337 25.0832 3.80224 25.0832 4.84377V18.7396C25.0832 19.7811 24.6694 20.78 23.933 21.5165C23.1965 22.2529 22.1976 22.6667 21.1561 22.6667H15.1265C15.3271 22.2051 15.4213 21.7157 15.4213 21.2324C15.4213 21.1043 15.4129 20.9786 15.3972 20.8542H21.1561C21.7169 20.8542 22.2548 20.6314 22.6513 20.2348C23.0479 19.8383 23.2707 19.3004 23.2707 18.7396V4.84377C23.2707 4.28295 23.0479 3.7451 22.6513 3.34853C22.2548 2.95197 21.7169 2.72919 21.1561 2.72919H7.26025C6.69943 2.72919 6.16158 2.95197 5.76502 3.34853C5.36846 3.7451 5.14567 4.28295 5.14567 4.84377V11.1996C4.50078 11.2477 3.87795 11.4553 3.33317 11.8038V4.84377C3.33317 3.80224 3.74692 2.80337 4.48339 2.0669C5.21986 1.33043 6.21873 0.916687 7.26025 0.916687H21.1561ZM13.9061 4.54169C14.1251 4.5417 14.3367 4.62101 14.5017 4.76495C14.6668 4.90889 14.7741 5.10773 14.8039 5.32469L14.8123 5.44794V11.7917H19.3412C19.5708 11.7918 19.7918 11.879 19.9596 12.0357C20.1274 12.1925 20.2294 12.4071 20.245 12.6362C20.2607 12.8652 20.1888 13.0917 20.0439 13.2698C19.899 13.448 19.6919 13.5644 19.4644 13.5957L19.3412 13.6042H13.9061C13.6871 13.6042 13.4755 13.5249 13.3105 13.3809C13.1454 13.237 13.0381 13.0381 13.0083 12.8212L12.9998 12.6979V5.44794C12.9998 5.20758 13.0953 4.97708 13.2653 4.80712C13.4352 4.63717 13.6657 4.54169 13.9061 4.54169ZM5.44775 17.8334C6.16881 17.8334 6.86034 17.5469 7.3702 17.037C7.88006 16.5272 8.1665 15.8357 8.1665 15.1146C8.1665 14.3935 7.88006 13.702 7.3702 13.1922C6.86034 12.6823 6.16881 12.3959 5.44775 12.3959C4.7267 12.3959 4.03517 12.6823 3.52531 13.1922C3.01544 13.702 2.729 14.3935 2.729 15.1146C2.729 15.8357 3.01544 16.5272 3.52531 17.037C4.03517 17.5469 4.7267 17.8334 5.44775 17.8334ZM5.44775 25.0834C8.68488 25.0834 9.979 23.1875 9.979 21.3073C9.979 20.0567 9.109 19.0417 8.03721 19.0417H2.8583C1.7865 19.0417 0.916504 20.0567 0.916504 21.3073C0.916504 23.1947 2.21063 25.0834 5.44775 25.0834ZM13.604 16.3229C13.604 16.8838 13.3812 17.4216 12.9847 17.8182C12.5881 18.2147 12.0502 18.4375 11.4894 18.4375C10.9286 18.4375 10.3907 18.2147 9.99418 17.8182C9.59762 17.4216 9.37484 16.8838 9.37484 16.3229C9.37484 15.7621 9.59762 15.2243 9.99418 14.8277C10.3907 14.4311 10.9286 14.2084 11.4894 14.2084C12.0502 14.2084 12.5881 14.4311 12.9847 14.8277C13.3812 15.2243 13.604 15.7621 13.604 16.3229ZM10.4817 23.875C10.9698 23.0775 11.1849 22.1773 11.1849 21.3073C11.1838 20.7313 11.0516 20.1631 10.7983 19.6459H12.6591C13.517 19.6459 14.213 20.3564 14.213 21.2324C14.213 22.5495 13.1775 23.875 10.588 23.875H10.4817Z" fill="#EA5455"/>
</svg>
