<svg width="30" height="30" viewBox="0 0 30 30" fill="none" xmlns="http://www.w3.org/2000/svg">
<path d="M6 8V24H24V26H6C5.46957 26 4.96086 25.7893 4.58579 25.4142C4.21071 25.0391 4 24.5304 4 24V8H6ZM19 11H24.5L19 5.5V11ZM10 4H20L26 10V20C26 20.5304 25.7893 21.0391 25.4142 21.4142C25.0391 21.7893 24.5304 22 24 22H10C9.46957 22 8.96086 21.7893 8.58579 21.4142C8.21071 21.0391 8 20.5304 8 20V6C8 5.46957 8.21071 4.96086 8.58579 4.58579C8.96086 4.21071 9.46957 4 10 4ZM10 6V20H24V13H17V6H10Z" fill="#EA5455"/>
<path d="M24.1387 26.2181L23.6729 26.9792H24.5652H24.6715C26.0484 26.9792 27.0817 26.6263 27.7792 26.0325C28.4813 25.4346 28.7965 24.6308 28.7965 23.8365C28.7965 22.6942 27.8864 21.75 26.7426 21.75H24.8818H24.0801L24.4327 22.4699C24.6526 22.9189 24.7674 23.412 24.7684 23.9119C24.7683 24.7009 24.5732 25.5084 24.1387 26.2181ZM19.5312 20.9375C20.3849 20.9375 21.2036 20.5984 21.8073 19.9947C22.4109 19.3911 22.75 18.5724 22.75 17.7188C22.75 16.8651 22.4109 16.0464 21.8073 15.4428C21.2036 14.8391 20.3849 14.5 19.5312 14.5C18.6776 14.5 17.8589 14.8391 17.2553 15.4428C16.6516 16.0464 16.3125 16.8651 16.3125 17.7188C16.3125 18.5724 16.6516 19.3911 17.2553 19.9947C17.8589 20.5984 18.6776 20.9375 19.5312 20.9375ZM19.5312 28.1875C21.249 28.1875 22.5179 27.6823 23.3596 26.8628C24.1987 26.0457 24.5625 24.9651 24.5625 23.9115C24.5625 22.4598 23.5382 21.1458 22.1207 21.1458H16.9418C15.5243 21.1458 14.5 22.4598 14.5 23.9115C14.5 24.9684 14.8636 26.0493 15.7031 26.8657C16.545 27.6844 17.814 28.1875 19.5312 28.1875ZM27.4217 20.7759C27.912 20.2855 28.1875 19.6205 28.1875 18.9271C28.1875 18.2337 27.912 17.5686 27.4217 17.0783C26.9314 16.588 26.2663 16.3125 25.5729 16.3125C24.8795 16.3125 24.2145 16.588 23.7241 17.0783C23.2338 17.5686 22.9583 18.2337 22.9583 18.9271C22.9583 19.6205 23.2338 20.2855 23.7241 20.7759C24.2145 21.2662 24.8795 21.5417 25.5729 21.5417C26.2663 21.5417 26.9314 21.2662 27.4217 20.7759Z" fill="#EA5455" stroke="#FDF1F1"/>
</svg>
