<svg width="27" height="26" viewBox="0 0 27 26" fill="none" xmlns="http://www.w3.org/2000/svg">
<path d="M18.7961 4.45372V4.33335V3.25002C18.7961 2.99463 18.6947 2.74969 18.5141 2.5691C18.3335 2.38851 18.0886 2.28706 17.8332 2.28706C17.5778 2.28706 17.3328 2.38851 17.1523 2.5691C16.9717 2.74969 16.8702 2.99463 16.8702 3.25002V4.33335V4.45372H16.7498H10.2498H10.1295V4.33335V3.25002C10.1295 2.99463 10.028 2.74969 9.84742 2.5691C9.66683 2.38851 9.4219 2.28706 9.1665 2.28706C8.91111 2.28706 8.66618 2.38851 8.48559 2.5691M18.7961 4.45372L8.48559 2.5691M18.7961 4.45372H18.9165M18.7961 4.45372H18.9165M8.48559 2.5691C8.305 2.74969 8.20354 2.99463 8.20354 3.25002V4.33335M8.48559 2.5691L8.20354 4.33335M18.9165 4.45372H21.0832C21.9132 4.45372 22.7092 4.78345 23.2962 5.37037C23.8831 5.95729 24.2128 6.75332 24.2128 7.58335V20.5834C24.2128 21.4134 23.8831 22.2094 23.2962 22.7963C22.7092 23.3833 21.9132 23.713 21.0832 23.713H5.9165C5.08647 23.713 4.29044 23.3833 3.70352 22.7963C3.1166 22.2094 2.78687 21.4134 2.78687 20.5834V7.58335C2.78687 6.75332 3.1166 5.95729 3.70352 5.37037C4.29044 4.78345 5.08647 4.45372 5.9165 4.45372H8.08317H8.20354M18.9165 4.45372H8.20354M8.20354 4.45372V4.33335M8.20354 4.45372V4.33335M4.83317 12.8797H4.7128V13V20.5834C4.7128 20.9026 4.83962 21.2088 5.06536 21.4345C5.2911 21.6602 5.59726 21.7871 5.9165 21.7871H21.0832C21.4024 21.7871 21.7086 21.6602 21.9343 21.4345C22.1601 21.2088 22.2869 20.9026 22.2869 20.5834V13V12.8797H22.1665H4.83317ZM22.1665 10.9537H22.2869V10.8334V7.58335C22.2869 7.26411 22.1601 6.95794 21.9343 6.73221C21.7086 6.50647 21.4024 6.37965 21.0832 6.37965H18.9165H18.7961V6.50002V7.58335C18.7961 7.83875 18.6947 8.08368 18.5141 8.26427C18.3335 8.44486 18.0886 8.54632 17.8332 8.54632C17.5778 8.54632 17.3328 8.44486 17.1523 8.26427C16.9717 8.08368 16.8702 7.83875 16.8702 7.58335V6.50002V6.37965H16.7498H10.2498H10.1295V6.50002V7.58335C10.1295 7.83875 10.028 8.08368 9.84742 8.26427C9.66683 8.44486 9.4219 8.54632 9.1665 8.54632C8.91111 8.54632 8.66618 8.44486 8.48559 8.26427C8.305 8.08368 8.20354 7.83875 8.20354 7.58335V6.50002V6.37965H8.08317H5.9165C5.59726 6.37965 5.2911 6.50647 5.06536 6.73221C4.83962 6.95794 4.7128 7.26411 4.7128 7.58335V10.8334V10.9537H4.83317H22.1665Z" fill="#28C76F" stroke="#FDF1F1" stroke-width="0.240741"/>
<path d="M18.1441 17.985L18.1441 17.985C18.099 17.9398 18.0736 17.8786 18.0736 17.8148C18.0736 17.8148 18.0736 17.8148 18.0736 17.8148V15.4074C18.0736 15.3436 18.0989 15.2823 18.1441 15.2372C18.1892 15.192 18.2505 15.1667 18.3143 15.1667C18.3782 15.1667 18.4394 15.192 18.4846 15.2372C18.5297 15.2823 18.5551 15.3436 18.5551 15.4074V17.6155V17.7152L18.6256 17.7857L19.9272 19.0874C19.9703 19.1326 19.9941 19.1929 19.9936 19.2554C19.993 19.3186 19.9677 19.3789 19.9231 19.4236L20.0933 19.5938L19.9231 19.4236C19.8784 19.4682 19.8181 19.4935 19.7549 19.4941C19.6924 19.4946 19.6321 19.4708 19.5869 19.4277L18.1441 17.985ZM23.3699 17.8148C23.3699 15.0226 21.1065 12.7593 18.3143 12.7593C15.5221 12.7593 13.2588 15.0226 13.2588 17.8148C13.2588 20.607 15.5221 22.8704 18.3143 22.8704C21.1065 22.8704 23.3699 20.607 23.3699 17.8148Z" fill="#28C76F" stroke="#FDF1F1" stroke-width="0.481481"/>
</svg>
