<svg width="31" height="30" viewBox="0 0 31 30" fill="none" xmlns="http://www.w3.org/2000/svg">
<path d="M6.5 8V24H24.5V26H6.5C5.96957 26 5.46086 25.7893 5.08579 25.4142C4.71071 25.0391 4.5 24.5304 4.5 24V8H6.5ZM19.5 11H25L19.5 5.5V11ZM10.5 4H20.5L26.5 10V20C26.5 20.5304 26.2893 21.0391 25.9142 21.4142C25.5391 21.7893 25.0304 22 24.5 22H10.5C9.96957 22 9.46086 21.7893 9.08579 21.4142C8.71071 21.0391 8.5 20.5304 8.5 20V6C8.5 5.46957 8.71071 4.96086 9.08579 4.58579C9.46086 4.21071 9.96957 4 10.5 4ZM10.5 6V20H24.5V13H17.5V6H10.5Z" fill="#FF9F43"/>
<path d="M21.4149 21.3075L21.4148 21.3074C21.3627 21.2554 21.3335 21.1847 21.3334 21.1111C21.3334 21.1111 21.3334 21.1111 21.3334 21.111V18.3333C21.3334 18.2596 21.3627 18.189 21.4148 18.1369C21.4669 18.0848 21.5375 18.0555 21.6112 18.0555C21.6849 18.0555 21.7555 18.0848 21.8076 18.1369C21.8597 18.189 21.889 18.2596 21.889 18.3333V20.8811V20.9962L21.9704 21.0775L23.4723 22.5794C23.522 22.6316 23.5495 22.7012 23.5488 22.7734C23.5482 22.8462 23.519 22.9159 23.4675 22.9674C23.416 23.0189 23.3463 23.0481 23.2735 23.0487C23.2013 23.0493 23.1318 23.0219 23.0795 22.9721L21.4149 21.3075ZM27.4446 21.1111C27.4446 17.8894 24.833 15.2778 21.6112 15.2778C18.3895 15.2778 15.7779 17.8894 15.7779 21.1111C15.7779 24.3328 18.3895 26.9444 21.6112 26.9444C24.833 26.9444 27.4446 24.3328 27.4446 21.1111Z" fill="#FF9F43" stroke="#FDF1F1" stroke-width="0.555556"/>
</svg>
