<?xml version="1.0" encoding="utf-8"?>
<!-- Generator: Adobe Illustrator 17.0.0, SVG Export Plug-In . SVG Version: 6.00 Build 0)  -->
<!DOCTYPE svg PUBLIC "-//W3C//DTD SVG 1.1//EN" "http://www.w3.org/Graphics/SVG/1.1/DTD/svg11.dtd">
<svg version="1.1" id="Layer_1" xmlns="http://www.w3.org/2000/svg" xmlns:xlink="http://www.w3.org/1999/xlink" x="0px" y="0px"
	 width="24px" height="24px" viewBox="0 0 24 24" enable-background="new 0 0 24 24" xml:space="preserve">
<g>
	<g>
		<path fill="#5D6770" d="M-71.8,0.085c0.434,0.201,0.57,0.549,0.553,1.012c-0.024,0.658-0.006,1.318-0.006,1.999
			c0.45,0.071,0.895,0.153,1.33,0.286c2.628,0.803,4.59,3.215,4.833,5.956c0.087,0.983,0.057,1.97,0.031,2.953
			c-0.059,2.253,0.715,4.121,2.407,5.629c1.025,0.914,0.638,2.543-0.66,2.94c-0.203,0.062-0.409,0.077-0.62,0.077
			c-1.465-0.002-2.931-0.001-4.414-0.001c-0.237,1.016-0.777,1.827-1.659,2.394c-0.65,0.418-1.368,0.603-2.14,0.583
			c-1.642-0.044-2.802-1.018-3.526-2.977c-0.078,0-0.162,0-0.246,0c-1.388,0-2.776,0.001-4.165,0c-0.829,0-1.461-0.41-1.732-1.121
			c-0.272-0.712-0.076-1.432,0.548-1.988c1.545-1.379,2.312-3.102,2.313-5.174c0-1.047-0.06-2.096,0.03-3.14
			c0.219-2.54,1.48-4.417,3.699-5.651c0.764-0.425,1.598-0.655,2.482-0.763c0-0.678,0.02-1.344-0.007-2.009
			c-0.019-0.457,0.112-0.798,0.531-1.006C-72.079,0.085-71.939,0.085-71.8,0.085z M-71.986,19.446c2.66,0,5.321,0,7.981,0
			c0.07,0,0.141,0.007,0.209-0.003c0.218-0.031,0.302-0.246,0.162-0.414c-0.049-0.059-0.113-0.106-0.17-0.158
			c-1.752-1.595-2.667-3.579-2.731-5.946c-0.026-0.946-0.008-1.892-0.005-2.839c0.001-0.296-0.015-0.59-0.06-0.881
			c-0.496-3.158-3.49-5.2-6.615-4.515c-2.293,0.503-4.06,2.534-4.222,4.869c-0.072,1.038-0.028,2.078-0.027,3.117
			c0.002,1.664-0.435,3.195-1.345,4.589c-0.418,0.64-0.925,1.204-1.501,1.705c-0.093,0.081-0.16,0.169-0.114,0.302
			c0.049,0.141,0.158,0.179,0.293,0.174c0.054-0.002,0.109,0,0.163,0C-77.307,19.446-74.646,19.446-71.986,19.446z M-74.074,20.943
			c0.161,0.837,1.214,1.535,2.218,1.477c0.884-0.051,1.865-0.809,1.912-1.477C-71.32,20.943-72.696,20.943-74.074,20.943z"/>
	</g>
</g>
<g>
	<g>
		<path fill="#5D6770" d="M-43.959,13.551c-0.124,0.117-0.193,0.18-0.259,0.246c-2.228,2.227-4.457,4.453-6.68,6.683
			c-0.335,0.336-0.718,0.487-1.178,0.36c-0.752-0.207-1.047-1.117-0.574-1.738c0.058-0.075,0.126-0.143,0.193-0.211
			c2.509-2.51,5.018-5.02,7.528-7.529c0.629-0.629,1.221-0.628,1.847-0.002c2.509,2.509,5.017,5.021,7.531,7.526
			c0.342,0.341,0.506,0.727,0.374,1.198c-0.21,0.752-1.119,1.044-1.74,0.568c-0.089-0.068-0.168-0.15-0.248-0.23
			c-2.203-2.202-4.406-4.405-6.607-6.609C-43.844,13.742-43.892,13.646-43.959,13.551z"/>
		<path fill="#5D6770" d="M-44.005,5.721c-0.101,0.14-0.146,0.226-0.213,0.293c-2.226,2.229-4.454,4.454-6.679,6.684
			c-0.249,0.25-0.523,0.425-0.888,0.419c-0.46-0.008-0.801-0.219-0.998-0.629c-0.202-0.421-0.14-0.826,0.15-1.193
			c0.054-0.068,0.119-0.126,0.18-0.188c2.522-2.522,5.043-5.044,7.565-7.565c0.567-0.567,1.191-0.572,1.752-0.011
			c2.547,2.546,5.093,5.092,7.638,7.639c0.47,0.47,0.526,1.073,0.149,1.544c-0.39,0.488-1.099,0.562-1.577,0.161
			c-0.099-0.083-0.188-0.18-0.28-0.272c-2.197-2.196-4.393-4.393-6.588-6.591C-43.858,5.948-43.904,5.861-44.005,5.721z"/>
	</g>
</g>
<g>
	<g>
		<path fill="#5D6770" d="M-17.607,12.467c0.004-1.016,0.84-1.852,1.856-1.854c1.022-0.002,1.873,0.855,1.859,1.872
			c-0.014,1.021-0.856,1.852-1.867,1.843C-16.778,14.32-17.611,13.48-17.607,12.467z"/>
		<path fill="#5D6770" d="M-6.479,12.482c-0.005,1.022-0.841,1.855-1.856,1.848c-1.027-0.006-1.858-0.851-1.849-1.88
			c0.008-1.014,0.858-1.849,1.87-1.836C-7.289,10.627-6.473,11.457-6.479,12.482z"/>
		<path fill="#5D6770" d="M-25.021,12.457c0.008-1.021,0.848-1.854,1.86-1.843c1.03,0.011,1.855,0.853,1.845,1.883
			c-0.01,1.014-0.866,1.85-1.874,1.832C-24.216,14.311-25.029,13.48-25.021,12.457z"/>
	</g>
</g>
<g>
	<g>
		<path fill="#5D6770" d="M67.497,14.39c0.106-0.143,0.154-0.228,0.221-0.294c2.228-2.231,4.46-4.459,6.685-6.693
			c0.328-0.329,0.703-0.476,1.152-0.36c0.775,0.201,1.072,1.138,0.569,1.767c-0.065,0.081-0.141,0.152-0.215,0.226
			c-2.493,2.493-4.986,4.986-7.479,7.479c-0.638,0.638-1.219,0.637-1.86-0.005c-2.518-2.518-5.036-5.035-7.552-7.553
			c-0.493-0.494-0.52-1.161-0.071-1.62c0.396-0.406,1.048-0.446,1.487-0.087c0.087,0.071,0.165,0.154,0.244,0.233
			c2.206,2.205,4.411,4.41,6.614,6.617C67.358,14.166,67.402,14.253,67.497,14.39z"/>
	</g>
</g>
<g>
	<g>
		<path fill="#5D6770" d="M12.864,23.636c-0.606,0-1.212,0-1.818,0c-0.019-0.061-0.071-0.043-0.113-0.047
			c-0.474-0.048-0.945-0.121-1.411-0.22c-4.688-0.996-8.36-4.922-9.032-9.648c-0.036-0.256-0.021-0.521-0.126-0.766
			c0-0.652,0-1.303,0-1.955c0.063-0.016,0.044-0.07,0.049-0.11c0.046-0.383,0.098-0.764,0.17-1.143
			c0.918-4.791,4.865-8.556,9.699-9.258c0.255-0.037,0.52-0.021,0.763-0.125c0.621,0,1.242,0,1.864,0
			c0.011,0.051,0.052,0.042,0.088,0.045c0.423,0.032,0.842,0.092,1.258,0.175c4.851,0.97,8.538,4.843,9.257,9.718
			c0.039,0.263,0.024,0.536,0.124,0.789c0,0.621,0,1.242,0,1.864c-0.061,0.018-0.043,0.071-0.047,0.113
			c-0.187,1.948-0.797,3.751-1.9,5.37c-1.926,2.828-4.583,4.525-7.968,5.072C13.436,23.555,13.141,23.54,12.864,23.636z
			 M11.99,22.008c5.516,0.012,9.999-4.46,10.017-9.993c0.018-5.514-4.451-9.998-9.987-10.023C6.503,1.968,1.997,6.463,1.992,11.996
			C1.988,17.515,6.462,21.996,11.99,22.008z"/>
		<path fill="#5D6770" d="M13.191,13.701c0,0.924-0.009,1.848,0.005,2.771c0.005,0.303-0.112,0.514-0.36,0.655
			c-0.533,0.302-1.081,0.313-1.624,0.03c-0.267-0.139-0.399-0.359-0.397-0.681c0.009-1.825,0.005-3.65,0.005-5.474
			c0-0.532,0.163-0.747,0.688-0.877c0.422-0.104,0.84-0.088,1.243,0.092c0.296,0.132,0.451,0.344,0.446,0.69
			C13.182,11.838,13.191,12.769,13.191,13.701z"/>
		<path fill="#5D6770" d="M12.005,8.65c-0.382,0.001-0.712-0.129-0.974-0.409c-0.402-0.429-0.374-1.039,0.061-1.436
			c0.466-0.425,1.214-0.457,1.716-0.073c0.559,0.427,0.575,1.171,0.035,1.62C12.609,8.546,12.321,8.649,12.005,8.65z"/>
	</g>
</g>
<g>
	<g>
		<path fill="#5D6770" d="M27.789,12.961c0-0.64,0-1.281,0-1.921c0.061-0.019,0.043-0.072,0.047-0.114
			c0.049-0.477,0.122-0.95,0.221-1.42c0.987-4.688,4.966-8.41,9.708-9.087c0.257-0.037,0.524-0.021,0.771-0.127
			c0.61,0,1.22,0,1.829,0c0.02,0.062,0.073,0.04,0.114,0.043c0.411,0.029,0.818,0.083,1.221,0.165
			c2.918,0.589,5.309,2.05,7.102,4.421c2.139,2.828,2.852,6.017,2.142,9.489c-0.578,2.824-2.052,5.124-4.339,6.874
			c-2.564,1.964-5.476,2.726-8.674,2.315c-2.324-0.299-4.377-1.244-6.135-2.797c-2.139-1.89-3.436-4.248-3.881-7.072
			C27.876,13.474,27.895,13.207,27.789,12.961z M39.499,1.756c-5.643-0.002-10.244,4.596-10.246,10.241
			c-0.003,5.642,4.598,10.245,10.242,10.247c5.643,0.002,10.244-4.598,10.247-10.242C49.743,6.358,45.145,1.758,39.499,1.756z"/>
		<path fill="#5D6770" d="M38.765,12.732c-1.471,0-2.911,0.002-4.351-0.001c-0.565-0.001-0.93-0.525-0.711-1.018
			c0.138-0.31,0.392-0.446,0.731-0.446c1.371,0.003,2.743,0.001,4.114,0.001c0.061,0,0.122,0,0.184,0
			c0.062-0.075,0.03-0.162,0.03-0.242c0.002-1.379,0-2.758,0.003-4.137c0.001-0.389,0.275-0.696,0.642-0.74
			c0.366-0.044,0.716,0.199,0.8,0.566c0.022,0.095,0.019,0.197,0.019,0.295c0.001,1.409,0.001,2.818,0.001,4.226
			c0.081,0.057,0.167,0.029,0.247,0.029c1.371,0.002,2.743,0,4.114,0.002c0.402,0.001,0.716,0.275,0.758,0.649
			c0.041,0.367-0.205,0.714-0.573,0.796c-0.088,0.02-0.182,0.017-0.273,0.018c-1.341,0.001-2.682,0.001-4.023,0.001
			c-0.075,0-0.15,0-0.223,0c-0.05,0.088-0.026,0.172-0.026,0.253c-0.002,1.371,0,2.743-0.002,4.114
			c-0.001,0.355-0.199,0.62-0.522,0.721c-0.3,0.093-0.619-0.017-0.806-0.279c-0.106-0.149-0.136-0.316-0.136-0.497
			c0.002-1.356,0.001-2.712,0.001-4.068C38.765,12.902,38.765,12.827,38.765,12.732z"/>
	</g>
</g>
</svg>
