<svg width="13" height="15" viewBox="0 0 13 15" fill="none" xmlns="http://www.w3.org/2000/svg">
<path d="M0.56836 7.47186C0.568161 7.58326 0.601043 7.69221 0.662838 7.7849C0.724632 7.87758 0.812557 7.94984 0.915464 7.99249C1.01837 8.03515 1.13163 8.04629 1.24087 8.0245C1.35012 8.00272 1.45044 7.94898 1.52911 7.87011L6.69849 2.69849C7.226 2.17097 7.94147 1.87462 8.68749 1.87462C9.05688 1.87462 9.42265 1.94737 9.76392 2.08873C10.1052 2.23009 10.4153 2.43729 10.6765 2.69849C10.9377 2.95969 11.1449 3.26977 11.2862 3.61105C11.4276 3.95232 11.5004 4.3181 11.5004 4.68749C11.5004 5.05688 11.4276 5.42265 11.2862 5.76393C11.1449 6.1052 10.9377 6.41529 10.6765 6.67649L4.71061 12.6424C4.49843 12.8473 4.21425 12.9607 3.91928 12.9581C3.62431 12.9556 3.34215 12.8372 3.13356 12.6287C2.92498 12.4201 2.80667 12.1379 2.8041 11.8429C2.80154 11.548 2.91493 11.2638 3.11986 11.0516L9.08574 5.08574C9.13803 5.03344 9.17952 4.97135 9.20782 4.90302C9.23613 4.83469 9.2507 4.76145 9.2507 4.68749C9.2507 4.61353 9.23613 4.54029 9.20782 4.47196C9.17952 4.40362 9.13803 4.34154 9.08574 4.28924C9.03344 4.23694 8.97135 4.19545 8.90302 4.16715C8.83469 4.13884 8.76145 4.12428 8.68749 4.12428C8.61352 4.12428 8.54029 4.13884 8.47195 4.16715C8.40362 4.19545 8.34153 4.23694 8.28924 4.28924L2.32336 10.2562C2.10846 10.4638 1.93705 10.7121 1.81913 10.9866C1.70121 11.2611 1.63914 11.5563 1.63655 11.8551C1.63395 12.1538 1.69088 12.4501 1.80401 12.7266C1.91714 13.0032 2.08421 13.2544 2.29547 13.4656C2.50673 13.6769 2.75795 13.844 3.03446 13.9571C3.31098 14.0702 3.60726 14.1271 3.90601 14.1246C4.20477 14.122 4.50001 14.0599 4.77452 13.942C5.04903 13.824 5.29731 13.6526 5.50486 13.4377L11.4707 7.47186C12.2092 6.7334 12.6241 5.73183 12.6241 4.68749C12.6241 3.64314 12.2092 2.64157 11.4707 1.90311C10.7323 1.16465 9.7307 0.749786 8.68636 0.749786C7.64202 0.749786 6.64045 1.16465 5.90199 1.90311L0.733735 7.07361C0.681433 7.12587 0.639993 7.18797 0.611802 7.25632C0.583612 7.32467 0.568105 7.39793 0.56836 7.47186Z" fill="#5F9DFF"/>
</svg>
