<svg width="14" height="15" viewBox="0 0 14 15" fill="none" xmlns="http://www.w3.org/2000/svg">
<path d="M4.19368 8.96474C3.99201 8.96474 3.82308 8.89641 3.68689 8.75975C3.55071 8.62309 3.48238 8.45416 3.4819 8.25296C3.4819 8.05129 3.55023 7.88236 3.68689 7.74617C3.82356 7.60998 3.99249 7.54165 4.19368 7.54118C4.39536 7.54118 4.56452 7.60951 4.70119 7.74617C4.83785 7.88283 4.90594 8.05176 4.90547 8.25296C4.90547 8.45463 4.83714 8.6238 4.70047 8.76046C4.56381 8.89713 4.39488 8.96522 4.19368 8.96474ZM7.04082 8.96474C6.83915 8.96474 6.67022 8.89641 6.53403 8.75975C6.39784 8.62309 6.32951 8.45416 6.32904 8.25296C6.32904 8.05129 6.39737 7.88236 6.53403 7.74617C6.67069 7.60998 6.83962 7.54165 7.04082 7.54118C7.24249 7.54118 7.41166 7.60951 7.54832 7.74617C7.68498 7.88283 7.75308 8.05176 7.7526 8.25296C7.7526 8.45463 7.68427 8.6238 7.54761 8.76046C7.41095 8.89713 7.24202 8.96522 7.04082 8.96474ZM9.88795 8.96474C9.68628 8.96474 9.51735 8.89641 9.38116 8.75975C9.24498 8.62309 9.17665 8.45416 9.17617 8.25296C9.17617 8.05129 9.2445 7.88236 9.38116 7.74617C9.51783 7.60998 9.68676 7.54165 9.88795 7.54118C10.0896 7.54118 10.2588 7.60951 10.3955 7.74617C10.5321 7.88283 10.6002 8.05176 10.5997 8.25296C10.5997 8.45463 10.5314 8.6238 10.3947 8.76046C10.2581 8.89713 10.0892 8.96522 9.88795 8.96474ZM2.05833 14.659C1.66685 14.659 1.33184 14.5197 1.05329 14.2412C0.77475 13.9627 0.63524 13.6274 0.634766 13.2354V3.27047C0.634766 2.87899 0.774275 2.54398 1.05329 2.26544C1.33231 1.98689 1.66733 1.84738 2.05833 1.84691H2.77012V0.42334H4.19368V1.84691H9.88795V0.42334H11.3115V1.84691H12.0233C12.4148 1.84691 12.75 1.98642 13.0291 2.26544C13.3081 2.54446 13.4473 2.87947 13.4469 3.27047V13.2354C13.4469 13.6269 13.3076 13.9622 13.0291 14.2412C12.7505 14.5202 12.4153 14.6595 12.0233 14.659H2.05833ZM2.05833 13.2354H12.0233V6.11761H2.05833V13.2354Z" fill="#252C32"/>
</svg>
