<svg width="15" height="14" viewBox="0 0 15 14" fill="none" xmlns="http://www.w3.org/2000/svg">
<path fill-rule="evenodd" clip-rule="evenodd" d="M11.7671 1.75H2.43376C1.79209 1.75 1.26709 2.275 1.26709 2.91667V11.0833C1.26709 11.725 1.79209 12.25 2.43376 12.25H11.7671C12.4088 12.25 12.9338 11.725 12.9338 11.0833V2.91667C12.9338 2.275 12.4088 1.75 11.7671 1.75ZM11.7671 11.0833H2.43376V2.91667H11.7671V11.0833Z" fill="black"/>
<path fill-rule="evenodd" clip-rule="evenodd" d="M11.4229 6.07831L10.5946 5.24998L8.74542 7.09915L7.92292 6.27081L7.10042 7.09331L8.74542 8.74998L11.4229 6.07831ZM3.01709 4.08331H5.93376V5.24998H3.01709V4.08331ZM3.01709 6.41665H5.93376V7.58331H3.01709V6.41665ZM3.01709 8.74998H5.93376V9.91665H3.01709V8.74998Z" fill="black"/>
</svg>
