<svg width="15" height="15" viewBox="0 0 15 15" fill="none" xmlns="http://www.w3.org/2000/svg">
<path d="M12.9865 3.51892H5.80293C4.78428 3.51892 3.9585 4.3447 3.9585 5.36335V12.5469C3.9585 13.5656 4.78428 14.3914 5.80293 14.3914H12.9865C14.0052 14.3914 14.8309 13.5656 14.8309 12.5469V5.36335C14.8309 4.3447 14.0052 3.51892 12.9865 3.51892Z" stroke="black" stroke-width="1.03547" stroke-linejoin="round"/>
<path d="M12.2264 3.51849L12.2426 2.74188C12.2412 2.26171 12.0498 1.8016 11.7103 1.46206C11.3708 1.12253 10.9107 0.931176 10.4305 0.92981H3.44106C2.89231 0.931431 2.3665 1.15014 1.97847 1.53817C1.59045 1.92619 1.37174 2.452 1.37012 3.00075V9.99018C1.37148 10.4704 1.56284 10.9305 1.90237 11.27C2.2419 11.6095 2.70202 11.8009 3.18219 11.8023H3.95879M9.39502 6.36603V11.5434M11.9837 8.95471H6.80634" stroke="black" stroke-width="1.03547" stroke-linecap="round" stroke-linejoin="round"/>
</svg>
