<svg width="19" height="19" viewBox="0 0 19 19" fill="none" xmlns="http://www.w3.org/2000/svg">
<path fill-rule="evenodd" clip-rule="evenodd" d="M5.23389 2.16058C4.83606 2.16058 4.45453 2.31862 4.17323 2.59992C3.89192 2.88123 3.73389 3.26276 3.73389 3.66058V15.6606C3.73389 16.0584 3.89192 16.4399 4.17323 16.7212C4.45453 17.0025 4.83606 17.1606 5.23389 17.1606H14.2339C14.6317 17.1606 15.0132 17.0025 15.2945 16.7212C15.5759 16.4399 15.7339 16.0584 15.7339 15.6606V5.47108C15.7338 5.07329 15.5757 4.69182 15.2944 4.41058L13.4839 2.60008C13.2026 2.31876 12.8212 2.16067 12.4234 2.16058H5.23389ZM5.23389 3.66058H12.4234L14.2339 5.47108V15.6606H5.23389V3.66058ZM12.9124 8.75533C12.984 8.68615 13.0412 8.60339 13.0805 8.51189C13.1198 8.42038 13.1405 8.32197 13.1413 8.22238C13.1422 8.1228 13.1232 8.02404 13.0855 7.93187C13.0478 7.8397 12.9921 7.75596 12.9217 7.68554C12.8513 7.61512 12.7675 7.55943 12.6754 7.52172C12.5832 7.48401 12.4844 7.46503 12.3848 7.4659C12.2853 7.46676 12.1868 7.48745 12.0953 7.52676C12.0038 7.56606 11.9211 7.6232 11.8519 7.69483L8.67039 10.8771L7.60914 9.81583C7.46768 9.67921 7.27823 9.60362 7.08159 9.60533C6.88494 9.60704 6.69683 9.68591 6.55777 9.82497C6.41872 9.96403 6.33984 10.1521 6.33813 10.3488C6.33642 10.5454 6.41202 10.7349 6.54864 10.8763L8.08614 12.4146C8.16275 12.4912 8.25372 12.552 8.35383 12.5935C8.45395 12.635 8.56126 12.6564 8.66964 12.6564C8.77801 12.6564 8.88532 12.635 8.98544 12.5935C9.08556 12.552 9.17652 12.4912 9.25314 12.4146L12.9124 8.75533Z" fill="white"/>
</svg>
